<svg width="214" height="58" viewBox="0 0 214 58" fill="none" xmlns="http://www.w3.org/2000/svg">
<path d="M45.9692 19.42C42.0815 21.25 37.0118 22.992 31.5984 24.644C30.4656 15.892 25.9868 8.56902 21.3604 8.03302C16.4384 7.45302 13.1406 14.597 13.9779 23.974C14.1257 25.76 14.4212 27.546 14.8645 29.199C13.6824 29.511 12.5003 29.779 11.3205 30.092L10.6309 30.27C6.694 31.253 3.05148 32.146 0 32.994C2.26453 32.726 4.97124 32.324 7.92422 31.834L11.1727 38.353L4.77423 40.228C3.25723 37.7855 1.68186 35.3736 0.0492528 32.994C3.98619 41.702 8.17048 47.953 9.40071 58C18.4566 53.758 27.4141 52.73 35.8801 50.632C38.636 49.828 41.392 49.025 44.1983 48.266C41.392 48.623 38.5375 48.98 35.7323 49.382L34.7473 42.148L42.2775 40.675C42.7207 43.22 43.361 45.765 44.1972 48.265C43.558 39.514 45.2808 24.644 45.9692 19.42V19.42ZM32.6808 39.96L24.3626 42.371L23.3294 36.656L31.2536 35.093L32.6808 39.96V39.96ZM23.0339 34.914L22.0007 29.199C24.3626 28.707 26.7749 28.216 29.0876 27.725L30.5652 32.726L23.0339 34.914ZM22.9354 42.818L15.9962 44.828L13.9779 38.487L20.9663 37.102L22.9354 42.818ZM20.8186 13.123C24.4611 13.123 28.1518 18.214 29.9249 25.135C27.2171 25.939 21.3604 27.546 21.3604 27.546C19.1943 28.127 17.0787 28.663 14.9619 29.199C13.9768 20.268 16.538 13.123 20.8186 13.123ZM18.4566 29.913L20.4749 35.629L13.7317 37.593L11.6641 31.208C13.8794 30.806 16.1429 30.36 18.4566 29.913V29.913ZM4.77423 40.317L11.4682 39.022L14.5679 45.274L8.51525 47.015C7.38244 44.693 6.10296 42.461 4.77423 40.317V40.317ZM11.5656 54.16C10.7294 51.749 9.69622 49.471 8.61266 47.239L14.9126 46.033L18.1611 52.597C15.9469 53.043 13.7809 53.579 11.5656 54.16ZM18.4074 52.508L16.2906 45.72L23.4771 44.336L25.7898 50.989C23.3294 51.436 20.8678 51.927 18.4074 52.508ZM35.5353 49.427C32.3853 49.873 29.1861 50.364 25.9868 50.989L24.7063 44.113L33.4185 42.416L35.5353 49.426V49.427ZM34.3532 39.514L33.6648 34.646L41.4905 33.083C41.5415 34.4998 41.6401 35.9148 41.786 37.326L34.3543 39.514H34.3532ZM41.5398 29.511L33.2708 31.923L32.5812 26.966C36.076 26.162 39.3245 25.403 42.0323 24.689C41.786 26.162 41.6383 27.769 41.5398 29.511V29.511Z" fill="#78B829"/>
<path d="M45.5424 8.37001C45.5424 8.37001 49.3129 6.07501 49.511 7.11001C49.7595 8.14501 49.0645 10.71 49.0645 10.71L51.8423 13.005C51.8423 13.005 51.9912 13.14 52.0394 13.23C52.1893 13.455 52.3381 13.86 51.445 14.085C50.205 14.355 47.9733 14.49 47.9733 14.49L46.6839 17.145C46.6839 17.145 46.2374 18.405 45.4439 17.37C44.6503 16.38 43.5591 14.445 43.5591 14.445L40.4354 13.95C40.4354 13.95 38.8976 13.725 39.9888 12.645C41.0801 11.565 42.1713 10.71 42.1713 10.71L41.3285 7.87501C41.3285 7.87501 41.2782 7.65001 41.2782 7.56001C41.3274 7.24501 41.5266 6.70501 42.469 7.11001C43.8568 7.65001 45.5435 8.37001 45.5435 8.37001H45.5424ZM35.8232 0.27001C36.319 0.85501 36.8148 2.61001 36.8148 2.61001L39.2949 3.19501C39.2949 3.19501 39.4427 3.24001 39.4919 3.28501C39.6419 3.37501 39.8892 3.60001 39.4427 3.96001C38.798 4.50001 37.4594 5.17501 37.4594 5.17501L37.6083 7.15501C37.6083 7.15501 37.7571 8.05501 36.9144 7.65001C36.0716 7.24501 34.7319 6.39001 34.7319 6.39001L32.6491 6.97501C32.6491 6.97501 31.6071 7.29001 31.9048 6.30001C32.2025 5.31001 32.5506 4.50001 32.5506 4.50001L31.0621 3.01501C31.0621 3.01501 30.9636 2.88001 30.9132 2.83501C30.8147 2.61001 30.7644 2.25001 31.5075 2.20501C32.5002 2.16001 33.7896 2.11501 33.7896 2.11501C33.7896 2.11501 35.3273 -0.26999 35.8232 0.27001ZM23.1761 3.78001C23.1761 3.78001 23.6227 1.84501 24.0693 2.11501C24.5147 2.38501 25.259 3.51001 25.259 3.51001L27.0945 3.46501H27.2433C27.3922 3.51001 27.5903 3.60001 27.3418 3.91501C26.9949 4.41001 26.301 5.13001 26.301 5.13001L26.846 6.43501C26.846 6.43501 27.1437 7.02001 26.4991 6.88501C25.8533 6.79501 24.7632 6.43501 24.7632 6.43501L23.4739 7.20001C23.4739 7.20001 22.8281 7.60501 22.8281 6.88501C22.8281 6.16501 22.8784 5.53501 22.8784 5.53501L21.5399 4.81501C21.5399 4.81501 21.4414 4.77001 21.391 4.72501C21.2925 4.59001 21.1426 4.36501 21.6384 4.18501C22.3334 4.00501 23.1761 3.78001 23.1761 3.78001Z" fill="#F18A00"/>
<path d="M98.2939 34.9925L97.8896 36.29H99.2486H104.893H106.259L105.846 34.9878L102.999 26.0088L102.038 22.976L101.091 26.0135L98.2939 34.9925ZM107.219 40.3067L106.995 39.615H106.268H97.8728H97.1456L96.9215 40.3069L95.772 43.856H90.51L98.5768 21.445H105.565L113.632 43.856H108.369L107.219 40.3067ZM170.59 33.937V21.445H187.439V43.856H182.518V26.311V25.311H181.518H176.56H175.56V26.311V34.974C175.56 36.7424 175.473 39.051 174.45 40.9112C173.952 41.8172 173.231 42.6155 172.167 43.1956C171.096 43.7794 169.622 44.172 167.578 44.172C166.922 44.172 165.827 44.0184 164.777 43.7284L166.865 40.4002C167.585 40.5327 168.247 40.5238 168.827 40.3028C169.672 39.9814 170.12 39.3037 170.346 38.5953C170.561 37.9237 170.608 37.1348 170.616 36.3781C170.62 35.9891 170.612 35.5196 170.604 35.0498C170.597 34.6644 170.59 34.2787 170.59 33.937ZM199.858 33.898H198.858V34.898V40.042V41.0574L199.873 41.0419L202.802 40.997C202.805 40.997 202.807 40.997 202.81 40.997C203.943 40.9963 205.05 40.8379 205.892 40.266C206.819 39.636 207.239 38.641 207.239 37.425C207.239 36.2077 206.817 35.218 205.881 34.5996C205.037 34.0421 203.928 33.898 202.802 33.898H199.858ZM193.887 43.87V21.459H198.807V29.98V30.98H199.807H203.441C205.178 30.98 207.405 31.1534 209.171 32.0551C210.036 32.4968 210.769 33.103 211.291 33.9369C211.811 34.7691 212.16 35.8901 212.16 37.425C212.16 38.9587 211.809 40.0791 211.285 40.9113C210.76 41.7455 210.022 42.3524 209.154 42.7947C207.381 43.6972 205.152 43.87 203.441 43.87H193.887ZM83.371 30.8831L83.3769 30.8761L83.3827 30.869C84.1694 29.9045 84.7607 28.9165 85.0743 27.9513C85.3889 26.983 85.4409 25.9772 85.0484 25.0605L85.0485 25.0604L85.0443 25.0509C84.5229 23.8671 83.3528 23.0419 81.9918 22.518C80.6049 21.9841 78.8696 21.701 76.9623 21.701C74.3792 21.701 71.5651 22.223 68.8219 23.2033L68.8218 23.2034C65.1671 24.5101 61.8598 26.6257 59.8526 29.0052L59.8501 29.0081C58.3283 30.8262 57.3978 32.9617 58.1762 34.7813L58.1761 34.7813L58.1805 34.7913C58.702 35.9746 59.8721 36.7994 61.233 37.3231C62.6199 37.8569 64.3551 38.14 66.2624 38.14H66.2792C66.7109 38.14 67.2405 38.14 67.7767 38.0908L68.6853 38.0074V37.095V27.7418C68.7407 27.7039 68.8047 27.6617 68.878 27.6159C69.2913 27.3577 70.0005 26.981 71.1201 26.5738L71.1203 26.5737C72.2321 26.1692 73.2162 25.946 73.9184 25.8245C73.9292 25.8226 73.9399 25.8207 73.9506 25.8189V35.38V36.8514L75.3187 36.3098C78.6203 35.0028 81.5205 33.0692 83.371 30.8831ZM70.9495 14.3158C70.1069 14.4624 69.3132 14.6962 68.6853 14.9129V14H73.9506V14.0117C73.8592 14.0158 73.763 14.0205 73.6627 14.026C72.9128 14.0665 71.9119 14.1483 70.9495 14.3158ZM73.9506 42.148V48.368H68.6853V43.457V42.3501L67.584 42.4621C67.2019 42.501 66.765 42.502 66.2613 42.502C59.7369 42.502 55.1785 40.0138 53.5848 36.2983C52.3491 33.3558 53.0581 29.7775 55.884 26.4121C58.3958 23.421 62.3541 20.8459 66.9926 19.175C70.277 17.9941 73.7451 17.384 76.9623 17.384C83.4903 17.384 88.0481 19.8742 89.6398 23.5899C90.8732 26.483 90.1699 30.0596 87.3398 33.4288L87.3395 33.4291C84.8287 36.4202 80.8702 38.9963 76.2316 40.6672L76.2087 40.6754L76.1863 40.6848C75.8681 40.8172 75.5869 40.9027 75.2608 41.0019C75.0722 41.0592 74.8686 41.1212 74.6342 41.1994L73.9506 41.4274V42.148ZM135.51 23.3398L134.025 27.0619C132.692 25.9043 130.882 24.905 128.553 24.905C126.357 24.905 124.499 25.7799 123.201 27.2514C121.913 28.7119 121.221 30.7065 121.221 32.899C121.221 34.9585 121.878 36.8594 123.159 38.2563C124.449 39.6639 126.308 40.487 128.553 40.487C130.777 40.487 132.615 39.5898 133.976 38.535L135.516 42.5744C134.561 43.0727 133.277 43.5291 131.941 43.8843C130.263 44.3304 128.652 44.578 127.719 44.578C124.273 44.578 121.385 43.3893 119.36 41.3484C117.335 39.3079 116.104 36.346 116.104 32.673C116.104 28.8408 117.468 25.8818 119.552 23.8789C121.644 21.8677 124.518 20.768 127.62 20.768C128.544 20.768 130.175 21.1567 131.909 21.7663C133.26 22.2413 134.564 22.8114 135.51 23.3398ZM158.023 32.673C158.023 30.1113 157.215 28.0875 155.871 26.6983C154.531 25.3136 152.73 24.634 150.887 24.634C149.045 24.634 147.244 25.3137 145.904 26.6984C144.56 28.0877 143.752 30.1118 143.752 32.674C143.752 35.2353 144.56 37.2589 145.904 38.6479C147.244 40.0324 149.046 40.712 150.887 40.712C152.729 40.712 154.531 40.0324 155.87 38.6478C157.215 37.2586 158.023 35.2348 158.023 32.673ZM138.634 32.673C138.634 29.6083 139.623 26.6345 141.615 24.4387C143.59 22.2604 146.624 20.768 150.888 20.768C155.151 20.768 158.185 22.2603 160.16 24.4387C162.152 26.6344 163.141 29.6083 163.141 32.673C163.141 35.7377 162.152 38.7115 160.16 40.9073C158.185 43.0856 155.151 44.578 150.887 44.578C146.626 44.578 143.592 43.076 141.615 40.8913C139.622 38.6888 138.634 35.7141 138.634 32.673Z" stroke="#F18A00" stroke-width="2"/>
</svg>
